<svg width="236" height="26" viewBox="0 0 236 26" fill="none" xmlns="http://www.w3.org/2000/svg">
<path fill-rule="evenodd" clip-rule="evenodd" d="M75.6518 23.3036C75.6518 23.8105 75.3965 24.0639 74.8858 24.0639H65.8889C65.6716 24.0639 65.495 24.0006 65.3592 23.8738C65.2234 23.7471 65.1555 23.5681 65.1555 23.3367C65.1555 23.1383 65.2016 22.9785 65.294 22.8573C65.3864 22.7361 65.5303 22.6369 65.7259 22.5598L66.4268 22.3449C66.6006 22.2898 66.7364 22.1851 66.8342 22.0309C66.932 21.8766 66.9809 21.6562 66.9809 21.3697V11.816C66.9809 11.6617 66.9429 11.5322 66.8668 11.4276C66.7908 11.3229 66.6495 11.2265 66.4431 11.1383L65.4977 10.8243C65.2478 10.703 65.0685 10.5736 64.9599 10.4358C64.8512 10.2981 64.7969 10.13 64.7969 9.93169C64.7969 9.73335 64.8648 9.57081 65.0006 9.44409L65.054 9.39954C65.1841 9.30252 65.3538 9.25401 65.5629 9.25401H66.9931L66.9819 9.15742C66.9514 8.96424 66.875 8.7788 66.7527 8.60112C66.5898 8.3642 66.405 8.09698 66.1986 7.79946C65.9921 7.50194 65.8074 7.14657 65.6444 6.73335C65.4814 6.32012 65.3999 5.81048 65.3999 5.20442C65.3999 3.7609 65.8889 2.60663 66.8668 1.74161C67.8447 0.876599 69.2356 0.444092 71.0393 0.444092C72.2019 0.444092 73.1663 0.63142 73.9323 1.00608C74.6983 1.38073 75.2715 1.87935 75.6518 2.50194C76.0321 3.12453 76.2223 3.80497 76.2223 4.54327C76.2223 5.41379 75.9968 6.06668 75.5459 6.50194C75.0949 6.9372 74.5163 7.15484 73.8101 7.15484C73.0277 7.15484 72.3975 6.90139 71.9194 6.39451C71.4413 5.88762 71.2023 5.21544 71.2023 4.37798V2.9069C71.2023 2.52123 71.1262 2.23748 70.9741 2.05566C70.822 1.87384 70.5884 1.78293 70.2733 1.78293C69.8712 1.78293 69.567 1.92068 69.3605 2.19616C69.1541 2.47164 69.0509 2.86833 69.0509 3.38624C69.0509 3.91517 69.1731 4.41103 69.4176 4.87384C69.6621 5.33665 69.9636 5.76916 70.3221 6.17136C70.6807 6.57357 71.0393 6.95924 71.3979 7.32839C71.7564 7.69754 72.058 8.06117 72.3024 8.4193L72.3721 8.52665C72.5041 8.7412 72.5921 8.95475 72.6362 9.16731L72.651 9.25401H75.0651C75.315 9.25401 75.5078 9.30635 75.6437 9.41103C75.7795 9.51572 75.8474 9.67825 75.8474 9.89864C75.8474 10.2292 75.7061 10.4992 75.4236 10.7086C75.1411 10.9179 74.6956 11.0226 74.0871 11.0226H72.9299V21.3201C72.9299 21.6287 72.9761 21.8656 73.0685 22.0309C73.1608 22.1962 73.3102 22.2953 73.5167 22.3284L74.9184 22.5433C75.1683 22.5763 75.353 22.6562 75.4725 22.7829C75.5921 22.9097 75.6518 23.0832 75.6518 23.3036ZM43.5597 23.6838C42.5818 24.1576 41.4409 24.3945 40.137 24.3945C38.757 24.3945 37.5211 24.1025 36.4291 23.5185C35.337 22.9345 34.4759 22.0887 33.8457 20.9813C33.2155 19.8738 32.9004 18.5267 32.9004 16.94C32.9004 15.4083 33.2291 14.0391 33.8865 12.8325C34.5438 11.6259 35.4593 10.6727 36.6328 9.97302C37.8063 9.27329 39.1754 8.92343 40.7401 8.92343C42.0765 8.92343 43.2039 9.12178 44.122 9.51847C45.0402 9.91517 45.741 10.4524 46.2246 11.13C46.7081 11.8077 46.9498 12.5653 46.9498 13.4028C46.9498 14.2843 46.6972 14.9758 46.192 15.4771C45.6867 15.9785 44.9994 16.2292 44.1302 16.2292C43.2392 16.2292 42.5628 15.973 42.101 15.4606C41.6392 14.9482 41.4083 14.2457 41.4083 13.3532V12.2953C41.4083 11.7554 41.3105 11.3477 41.1149 11.0722C40.9193 10.7967 40.6423 10.659 40.2837 10.659C39.9251 10.659 39.6019 10.805 39.3139 11.097C39.026 11.389 38.8032 11.827 38.6457 12.411C38.4881 12.9951 38.4093 13.7168 38.4093 14.5763C38.4093 15.8105 38.5913 16.8463 38.9553 17.6838C39.3194 18.5212 39.8165 19.1493 40.4467 19.5681C41.0769 19.9868 41.794 20.1962 42.5981 20.1962C43.4022 20.1962 44.0758 20.0777 44.6191 19.8408C45.1624 19.6039 45.5808 19.2044 45.8741 18.6424C46.0371 18.4882 46.1648 18.389 46.2572 18.3449C46.3495 18.3008 46.4392 18.2788 46.5261 18.2788C46.6347 18.2898 46.7244 18.3422 46.795 18.4358C46.8656 18.5295 46.8955 18.6755 46.8847 18.8738C46.7977 19.9537 46.4663 20.9069 45.8904 21.7333C45.3145 22.5598 44.5376 23.2099 43.5597 23.6838ZM60.1273 23.3532C58.9049 24.0254 57.4842 24.3614 55.8652 24.3614C54.2897 24.3614 52.907 24.0336 51.7172 23.378C50.5274 22.7223 49.6011 21.816 48.9383 20.659C48.2755 19.5019 47.9441 18.1631 47.9441 16.6424C47.9441 15.1879 48.2918 13.8794 48.9872 12.7168C49.6826 11.5543 50.6442 10.6314 51.872 9.94822C53.0999 9.26503 54.5124 8.92343 56.1097 8.92343C57.6961 8.92343 59.0815 9.25401 60.2659 9.91517C61.4502 10.5763 62.3738 11.4909 63.0366 12.659C63.6995 13.827 64.0309 15.1769 64.0309 16.7086C64.0309 18.1631 63.6859 19.4661 62.9959 20.6176C62.3059 21.7692 61.3497 22.681 60.1273 23.3532ZM57.1039 22.6424C56.7671 22.7086 56.4384 22.5598 56.1179 22.1962C55.7973 21.8325 55.4931 21.221 55.2051 20.3614C54.9172 19.5019 54.6428 18.3725 54.382 16.973C54.1321 15.5736 53.9909 14.4221 53.9583 13.5185C53.9257 12.6149 53.9909 11.9317 54.1539 11.4689C54.3169 11.0061 54.5668 10.7361 54.9036 10.659C55.2404 10.5929 55.5691 10.7416 55.8897 11.1052C56.2102 11.4689 56.5172 12.0805 56.8105 12.94C57.1039 13.7995 57.381 14.9289 57.6418 16.3284C57.9026 17.7278 58.0465 18.8821 58.0737 19.7912C58.1009 20.7003 58.0302 21.3862 57.8618 21.8491C57.6934 22.3119 57.4408 22.5763 57.1039 22.6424ZM86.2623 24.0639C86.7729 24.0639 87.0283 23.8105 87.0283 23.3036C87.0283 23.0832 86.9685 22.9097 86.849 22.7829C86.7295 22.6562 86.5448 22.5763 86.2949 22.5433L84.8932 22.3284C84.6867 22.2953 84.5373 22.1962 84.445 22.0309C84.3526 21.8656 84.3064 21.6287 84.3064 21.3201V11.0226H85.4636C86.0721 11.0226 86.5176 10.9179 86.8001 10.7086C87.0826 10.4992 87.2239 10.2292 87.2239 9.89864C87.2239 9.67825 87.156 9.51572 87.0201 9.41103C86.8843 9.30635 86.6915 9.25401 86.4415 9.25401H84.0275L84.0126 9.16731C83.9686 8.95475 83.8806 8.7412 83.7486 8.52665L83.6789 8.4193C83.4344 8.06117 83.1329 7.69754 82.7743 7.32839C82.4158 6.95924 82.0572 6.57357 81.6986 6.17136C81.3401 5.76916 81.0385 5.33665 80.794 4.87384C80.5496 4.41103 80.4273 3.91517 80.4273 3.38624C80.4273 2.86833 80.5306 2.47164 80.737 2.19616C80.9435 1.92068 81.2477 1.78293 81.6497 1.78293C81.9648 1.78293 82.1985 1.87384 82.3506 2.05566C82.5027 2.23748 82.5788 2.52123 82.5788 2.9069V4.37798C82.5788 5.21544 82.8178 5.88762 83.2959 6.39451C83.774 6.90139 84.4042 7.15484 85.1865 7.15484C85.8928 7.15484 86.4714 6.9372 86.9224 6.50194C87.3733 6.06668 87.5987 5.41379 87.5987 4.54327C87.5987 3.80497 87.4086 3.12453 87.0283 2.50194C86.648 1.87935 86.0748 1.38073 85.3088 1.00608C84.5427 0.63142 83.5784 0.444092 82.4158 0.444092C80.612 0.444092 79.2212 0.876599 78.2433 1.74161C77.2654 2.60663 76.7764 3.7609 76.7764 5.20442C76.7764 5.81048 76.8579 6.32012 77.0209 6.73335C77.1839 7.14657 77.3686 7.50194 77.5751 7.79946C77.7815 8.09698 77.9662 8.3642 78.1292 8.60112C78.2515 8.7788 78.3279 8.96424 78.3584 9.15742L78.3696 9.25401H76.9394C76.7302 9.25401 76.5606 9.30252 76.4305 9.39954L76.3771 9.44409C76.2413 9.57081 76.1734 9.73335 76.1734 9.93169C76.1734 10.13 76.2277 10.2981 76.3364 10.4358C76.445 10.5736 76.6243 10.703 76.8742 10.8243L77.8195 11.1383C78.026 11.2265 78.1672 11.3229 78.2433 11.4276C78.3194 11.5322 78.3574 11.6617 78.3574 11.816V21.3697C78.3574 21.6562 78.3085 21.8766 78.2107 22.0309C78.1129 22.1851 77.9771 22.2898 77.8032 22.3449L77.1024 22.5598C76.9068 22.6369 76.7628 22.7361 76.6705 22.8573C76.5781 22.9785 76.5319 23.1383 76.5319 23.3367C76.5319 23.5681 76.5999 23.7471 76.7357 23.8738C76.8715 24.0006 77.0481 24.0639 77.2654 24.0639H86.2623ZM99.0241 23.5846C97.9701 24.1245 96.7532 24.3945 95.3732 24.3945C93.852 24.3945 92.5155 24.0777 91.3637 23.4441C90.212 22.8105 89.3128 21.9234 88.6663 20.7829C88.0198 19.6424 87.6965 18.3229 87.6965 16.8243C87.6965 15.2485 88.0089 13.8683 88.6337 12.6838C89.2585 11.4992 90.1631 10.5763 91.3474 9.91517C92.5318 9.25401 93.9552 8.92343 95.6177 8.92343C97.0302 8.92343 98.2472 9.20167 99.2686 9.75814C100.29 10.3146 101.075 11.0694 101.624 12.0226C102.172 12.9758 102.447 14.0364 102.447 15.2044C102.447 15.7113 102.311 16.1108 102.039 16.4028L101.975 16.4676C101.707 16.7164 101.337 16.8408 100.866 16.8408H93.4151L93.4311 16.917C93.6288 17.8245 93.9665 18.5511 94.4442 19.097C95.2591 20.0281 96.3457 20.4937 97.7039 20.4937C98.5732 20.4937 99.3419 20.2953 100.01 19.8986C100.678 19.5019 101.127 18.951 101.355 18.2457C101.485 18.1025 101.602 18.0061 101.705 17.9565C101.808 17.9069 101.898 17.8821 101.974 17.8821C102.083 17.8821 102.175 17.9262 102.251 18.0143C102.327 18.1025 102.365 18.2513 102.365 18.4606C102.365 19.5405 102.072 20.5295 101.485 21.4276C100.898 22.3256 100.078 23.0446 99.0241 23.5846ZM93.245 15.5158C93.2295 15.2622 93.2218 14.9987 93.2218 14.7251C93.2218 13.6893 93.2978 12.8738 93.45 12.2788C93.6021 11.6838 93.7977 11.2623 94.0367 11.0143C94.2758 10.7664 94.542 10.6424 94.8354 10.6424C95.2157 10.6424 95.5715 10.9675 95.9029 11.6176C96.2343 12.2678 96.4 13.3477 96.4 14.8573C96.4 15.3201 96.1936 15.5515 95.7807 15.5515H93.2471L93.245 15.5158ZM114.606 23.5846C113.552 24.1245 112.335 24.3945 110.955 24.3945C109.434 24.3945 108.097 24.0777 106.945 23.4441C105.793 22.8105 104.894 21.9234 104.248 20.7829C103.601 19.6424 103.278 18.3229 103.278 16.8243C103.278 15.2485 103.59 13.8683 104.215 12.6838C104.84 11.4992 105.745 10.5763 106.929 9.91517C108.113 9.25401 109.537 8.92343 111.199 8.92343C112.612 8.92343 113.829 9.20167 114.85 9.75814C115.872 10.3146 116.657 11.0694 117.205 12.0226C117.754 12.9758 118.028 14.0364 118.028 15.2044C118.028 15.7113 117.893 16.1108 117.621 16.4028L117.556 16.4676C117.288 16.7164 116.919 16.8408 116.447 16.8408H108.997L109.013 16.917C109.21 17.8245 109.548 18.5511 110.026 19.097C110.841 20.0281 111.927 20.4937 113.285 20.4937C114.155 20.4937 114.923 20.2953 115.592 19.8986C116.26 19.5019 116.708 18.951 116.936 18.2457C117.067 18.1025 117.184 18.0061 117.287 17.9565C117.39 17.9069 117.48 17.8821 117.556 17.8821C117.664 17.8821 117.757 17.9262 117.833 18.0143C117.909 18.1025 117.947 18.2513 117.947 18.4606C117.947 19.5405 117.654 20.5295 117.067 21.4276C116.48 22.3256 115.66 23.0446 114.606 23.5846ZM108.827 15.5158C108.811 15.2622 108.803 14.9987 108.803 14.7251C108.803 13.6893 108.879 12.8738 109.032 12.2788C109.184 11.6838 109.379 11.2623 109.618 11.0143C109.857 10.7664 110.124 10.6424 110.417 10.6424C110.797 10.6424 111.153 10.9675 111.484 11.6176C111.816 12.2678 111.982 13.3477 111.982 14.8573C111.982 15.3201 111.775 15.5515 111.362 15.5515H108.829L108.827 15.5158ZM128.5 23.8573C128.364 23.9951 128.166 24.0639 127.905 24.0639H119.756C119.517 24.0639 119.33 23.9978 119.194 23.8656C119.058 23.7333 118.99 23.5515 118.99 23.3201C118.99 23.1438 119.031 22.9978 119.112 22.8821C119.194 22.7664 119.305 22.659 119.446 22.5598L119.821 22.411C119.962 22.3449 120.06 22.2402 120.115 22.097C120.169 21.9537 120.196 21.7168 120.196 21.3862V12.9895C120.196 12.7251 120.166 12.535 120.106 12.4193C120.047 12.3036 119.946 12.2127 119.805 12.1466L119.381 12.097C119.229 12.0088 119.118 11.9152 119.047 11.816C118.976 11.7168 118.941 11.5901 118.941 11.4358C118.941 11.2595 118.995 11.1025 119.104 10.9648C119.213 10.827 119.397 10.7086 119.658 10.6094L124.287 9.27054C124.559 9.16035 124.787 9.08321 124.972 9.03913C125.156 8.99506 125.314 8.97302 125.444 8.97302C125.629 8.97302 125.768 9.03913 125.86 9.17136L125.89 9.21932C125.966 9.35754 126.018 9.57847 126.047 9.88211L126.171 12.4505L126.2 12.3557C126.255 12.1768 126.315 12.0052 126.381 11.8408C126.778 10.8546 127.302 10.1218 127.954 9.64244C128.606 9.1631 129.318 8.92343 130.089 8.92343C131.024 8.92343 131.741 9.23748 132.241 9.86558C132.741 10.4937 132.991 11.4468 132.991 12.7251C132.991 13.9923 132.73 14.9234 132.208 15.5185C131.687 16.1135 131.013 16.411 130.187 16.411C129.383 16.411 128.788 16.2072 128.402 15.7995C128.017 15.3917 127.813 14.8132 127.791 14.0639L127.775 13.4028C127.764 13.1493 127.715 12.951 127.628 12.8077C127.541 12.6645 127.4 12.5929 127.205 12.5929C127.009 12.5929 126.838 12.6948 126.691 12.8986C126.544 13.1025 126.433 13.4138 126.357 13.8325C126.281 14.2513 126.243 14.7857 126.243 15.4358V21.254C126.243 21.5625 126.292 21.8077 126.39 21.9895C126.487 22.1714 126.64 22.2843 126.846 22.3284L128.068 22.5763C128.297 22.6094 128.46 22.6948 128.557 22.8325C128.655 22.9703 128.704 23.1328 128.704 23.3201C128.704 23.5405 128.636 23.7196 128.5 23.8573ZM141.531 24.3614C143.15 24.3614 144.571 24.0254 145.793 23.3532C147.016 22.681 147.972 21.7692 148.662 20.6176C149.352 19.4661 149.697 18.1631 149.697 16.7086C149.697 15.1769 149.365 13.827 148.702 12.659C148.04 11.4909 147.116 10.5763 145.932 9.91517C144.747 9.25401 143.362 8.92343 141.776 8.92343C140.178 8.92343 138.766 9.26503 137.538 9.94822C136.31 10.6314 135.348 11.5543 134.653 12.7168C133.958 13.8794 133.61 15.1879 133.61 16.6424C133.61 18.1631 133.941 19.5019 134.604 20.659C135.267 21.816 136.193 22.7223 137.383 23.378C138.573 24.0336 139.956 24.3614 141.531 24.3614ZM141.784 22.1962C142.104 22.5598 142.433 22.7086 142.77 22.6424C143.107 22.5763 143.359 22.3119 143.528 21.8491C143.696 21.3862 143.767 20.7003 143.74 19.7912C143.712 18.8821 143.568 17.7278 143.308 16.3284C143.047 14.9289 142.77 13.7995 142.476 12.94C142.183 12.0805 141.876 11.4689 141.556 11.1052C141.235 10.7416 140.906 10.5929 140.569 10.659C140.233 10.7361 139.983 11.0061 139.82 11.4689C139.657 11.9317 139.592 12.6149 139.624 13.5185C139.657 14.4221 139.798 15.5736 140.048 16.973C140.309 18.3725 140.583 19.5019 140.871 20.3614C141.159 21.221 141.463 21.8325 141.784 22.1962ZM162.622 24.3945C163.534 24.3945 164.284 24.2265 164.871 23.8904C165.458 23.5543 165.895 23.1548 166.183 22.692C166.471 22.2292 166.615 21.805 166.615 21.4193C166.615 21.254 166.579 21.1163 166.509 21.0061C166.438 20.8959 166.343 20.8408 166.224 20.8408C166.169 20.8408 166.12 20.8518 166.077 20.8738C166.033 20.8959 165.995 20.9289 165.963 20.973C165.908 21.1714 165.824 21.3091 165.71 21.3862C165.596 21.4634 165.474 21.5019 165.343 21.5019C165.159 21.5019 165.02 21.4386 164.928 21.3119C164.835 21.1851 164.789 21.0171 164.789 20.8077V13.5019C164.789 12.0474 164.298 10.9207 163.314 10.1218C162.331 9.32288 160.791 8.92343 158.694 8.92343C157.064 8.92343 155.703 9.12729 154.611 9.535C153.519 9.94271 152.698 10.4634 152.15 11.097C151.601 11.7306 151.327 12.378 151.327 13.0391C151.327 13.7444 151.53 14.2816 151.938 14.6507C152.345 15.0198 152.935 15.2044 153.706 15.2044C154.651 15.2044 155.396 14.9482 155.939 14.4358C156.482 13.9234 156.754 13.2595 156.754 12.4441V11.1879C156.754 10.8794 156.849 10.6397 157.039 10.4689C157.229 10.2981 157.466 10.2127 157.748 10.2127C158.052 10.2127 158.294 10.3256 158.474 10.5515C158.653 10.7774 158.742 11.0832 158.742 11.4689L158.742 16.2871L158.655 16.2682C158.393 16.2176 158.09 16.1887 157.745 16.1814L157.569 16.1796C155.233 16.1796 153.492 16.5763 152.345 17.3697C151.199 18.1631 150.626 19.2705 150.626 20.692C150.626 21.7719 151.02 22.659 151.807 23.3532C152.595 24.0474 153.641 24.3945 154.945 24.3945C155.923 24.3945 156.836 24.1934 157.683 23.7912C158.319 23.4895 158.835 23.0934 159.232 22.6027L159.255 22.574L159.279 22.648C159.404 23.0053 159.634 23.3253 159.968 23.6083L160.071 23.692C160.674 24.1603 161.524 24.3945 162.622 24.3945ZM157.007 21.2788C157.273 21.6369 157.623 21.816 158.058 21.816L158.151 21.8128C158.337 21.7999 158.516 21.7482 158.689 21.6578L158.742 21.6277V17.3862L158.661 17.3614C158.476 17.3119 158.259 17.2871 158.009 17.2871C157.585 17.2871 157.246 17.4854 156.99 17.8821C156.735 18.2788 156.607 18.8628 156.607 19.6342C156.607 20.3725 156.74 20.9207 157.007 21.2788ZM174.112 24.4441C176.046 24.4441 177.529 23.9978 178.562 23.1052C179.594 22.2127 180.11 20.9951 180.11 19.4524C180.11 18.5157 179.936 17.6948 179.588 16.9895C179.241 16.2843 178.632 15.659 177.763 15.1135C176.894 14.5681 175.671 14.0529 174.096 13.5681C173.509 13.3807 173.055 13.1906 172.735 12.9978C172.414 12.805 172.194 12.5984 172.075 12.378C171.955 12.1576 171.895 11.9207 171.895 11.6672C171.895 11.2926 172.031 10.9895 172.303 10.7581C172.575 10.5267 172.977 10.411 173.509 10.411C174.248 10.411 174.946 10.659 175.603 11.1548C176.261 11.6507 176.986 12.4992 177.779 13.7003C177.986 13.9537 178.192 14.1383 178.399 14.254C178.605 14.3697 178.801 14.4055 178.985 14.3614C179.214 14.2953 179.355 14.1438 179.409 13.9069C179.464 13.67 179.453 13.3311 179.377 12.8904L178.953 9.84905C178.909 9.52949 178.828 9.3036 178.708 9.17136C178.589 9.03913 178.431 8.97302 178.236 8.97302C178.062 8.97302 177.844 9.03362 177.584 9.15484C177.323 9.27605 177.065 9.40001 176.81 9.52674C176.554 9.65346 176.361 9.71682 176.231 9.71682C176.111 9.71682 175.935 9.6507 175.701 9.51847C175.468 9.38624 175.139 9.25401 174.715 9.12178C174.291 8.98955 173.743 8.92343 173.069 8.92343C171.95 8.92343 170.942 9.12729 170.046 9.535C169.149 9.94271 168.443 10.524 167.927 11.2788C167.411 12.0336 167.153 12.9345 167.153 13.9813C167.153 14.9069 167.345 15.7168 167.731 16.411C168.117 17.1052 168.706 17.7003 169.5 18.1962C170.293 18.692 171.292 19.0942 172.499 19.4028C173.281 19.6121 173.881 19.8243 174.3 20.0391C174.718 20.254 175.006 20.4882 175.163 20.7416C175.321 20.9951 175.4 21.276 175.4 21.5846C175.4 21.9923 175.264 22.3284 174.992 22.5929C174.721 22.8573 174.308 22.9895 173.754 22.9895C173.232 22.9895 172.735 22.8766 172.262 22.6507C171.79 22.4248 171.303 22.0364 170.803 21.4854C170.304 20.9345 169.744 20.1796 169.125 19.221C168.94 18.9675 168.731 18.7912 168.497 18.692C168.264 18.5929 168.027 18.5984 167.788 18.7086C167.56 18.7967 167.413 18.984 167.348 19.2705C167.283 19.557 167.299 19.9097 167.397 20.3284L167.902 23.6176C167.978 23.9482 168.087 24.1686 168.228 24.2788C168.37 24.389 168.522 24.4441 168.685 24.4441C168.869 24.4441 169.095 24.3835 169.361 24.2623L170.16 23.8986C170.426 23.7774 170.64 23.7168 170.803 23.7168C170.966 23.7168 171.181 23.7774 171.447 23.8986C171.713 24.0198 172.061 24.1411 172.49 24.2623C172.92 24.3835 173.46 24.4441 174.112 24.4441ZM189.563 23.8243C188.846 24.2044 187.999 24.3945 187.021 24.3945C185.369 24.3945 184.128 23.9923 183.296 23.1879C182.465 22.3835 182.05 21.1163 182.05 19.3862V11.9152C182.05 11.6838 182.028 11.5075 181.984 11.3862C181.941 11.265 181.832 11.1659 181.658 11.0887L180.892 10.8408C180.708 10.7526 180.588 10.6452 180.534 10.5185C180.479 10.3918 180.452 10.2347 180.452 10.0474C180.452 9.81599 180.534 9.62591 180.697 9.47715C180.86 9.32839 181.061 9.25401 181.3 9.25401H182.098C182.196 9.25401 182.299 9.21544 182.408 9.13831C182.517 9.06117 182.663 8.9069 182.848 8.6755L185.863 6.14657C186.081 5.88211 186.298 5.68101 186.515 5.54327C186.733 5.40552 186.95 5.33665 187.167 5.33665C187.417 5.33665 187.613 5.41379 187.754 5.56806L187.799 5.62275C187.91 5.77729 187.966 6.00148 187.966 6.29533L187.966 9.25401H191.372C191.611 9.25401 191.796 9.30635 191.927 9.41103C192.057 9.51572 192.122 9.67825 192.122 9.89864C192.122 10.2072 191.986 10.4716 191.715 10.692L191.654 10.7376C191.38 10.9276 190.966 11.0226 190.411 11.0226H187.966L187.966 18.5598C187.966 19.3862 188.105 19.9978 188.382 20.3945C188.659 20.7912 189.063 20.9895 189.596 20.9895C189.824 20.9895 190.036 20.94 190.232 20.8408C190.427 20.7416 190.604 20.6121 190.761 20.4524C190.919 20.2926 191.068 20.1135 191.209 19.9152C191.351 19.7168 191.487 19.5185 191.617 19.3201C191.726 19.276 191.821 19.2953 191.902 19.378C191.984 19.4606 192.019 19.6287 192.008 19.8821C191.932 20.7747 191.685 21.5598 191.266 22.2375C190.848 22.9152 190.28 23.4441 189.563 23.8243ZM200.239 24.3945C201.619 24.3945 202.836 24.1245 203.89 23.5846C204.944 23.0446 205.764 22.3256 206.351 21.4276C206.938 20.5295 207.231 19.5405 207.231 18.4606C207.231 18.2513 207.193 18.1025 207.117 18.0143C207.041 17.9262 206.949 17.8821 206.84 17.8821C206.764 17.8821 206.674 17.9069 206.571 17.9565C206.468 18.0061 206.351 18.1025 206.221 18.2457C205.992 18.951 205.544 19.5019 204.876 19.8986C204.208 20.2953 203.439 20.4937 202.57 20.4937C201.211 20.4937 200.125 20.0281 199.31 19.097C198.832 18.5511 198.494 17.8245 198.297 16.917L198.281 16.8408H205.732C206.203 16.8408 206.573 16.7164 206.84 16.4676L206.905 16.4028C207.177 16.1108 207.313 15.7113 207.313 15.2044C207.313 14.0364 207.038 12.9758 206.489 12.0226C205.941 11.0694 205.156 10.3146 204.134 9.75814C203.113 9.20167 201.896 8.92343 200.483 8.92343C198.821 8.92343 197.397 9.25401 196.213 9.91517C195.029 10.5763 194.124 11.4992 193.499 12.6838C192.875 13.8683 192.562 15.2485 192.562 16.8243C192.562 18.3229 192.885 19.6424 193.532 20.7829C194.178 21.9234 195.078 22.8105 196.229 23.4441C197.381 24.0777 198.718 24.3945 200.239 24.3945ZM198.087 14.7251C198.087 14.9987 198.095 15.2622 198.111 15.5158L198.113 15.5515H200.646C201.059 15.5515 201.266 15.3201 201.266 14.8573C201.266 13.3477 201.1 12.2678 200.769 11.6176C200.437 10.9675 200.081 10.6424 199.701 10.6424C199.408 10.6424 199.141 10.7664 198.902 11.0143C198.663 11.2623 198.468 11.6838 198.316 12.2788C198.164 12.8738 198.087 13.6893 198.087 14.7251ZM217.19 24.0639C217.45 24.0639 217.649 23.9951 217.784 23.8573C217.92 23.7196 217.988 23.5405 217.988 23.3201C217.988 23.1328 217.939 22.9703 217.841 22.8325C217.744 22.6948 217.581 22.6094 217.352 22.5763L216.13 22.3284C215.924 22.2843 215.772 22.1714 215.674 21.9895C215.576 21.8077 215.527 21.5625 215.527 21.254V15.4358C215.527 14.7857 215.565 14.2513 215.641 13.8325C215.717 13.4138 215.829 13.1025 215.975 12.8986C216.122 12.6948 216.293 12.5929 216.489 12.5929C216.684 12.5929 216.826 12.6645 216.912 12.8077C216.999 12.951 217.048 13.1493 217.059 13.4028L217.075 14.0639C217.097 14.8132 217.301 15.3917 217.687 15.7995C218.072 16.2072 218.667 16.411 219.471 16.411C220.297 16.411 220.971 16.1135 221.492 15.5185C222.014 14.9234 222.275 13.9923 222.275 12.7251C222.275 11.4468 222.025 10.4937 221.525 9.86558C221.025 9.23748 220.308 8.92343 219.374 8.92343C218.602 8.92343 217.89 9.1631 217.238 9.64244C216.586 10.1218 216.062 10.8546 215.666 11.8408C215.599 12.0052 215.539 12.1768 215.484 12.3557L215.456 12.451L215.331 9.88211C215.302 9.57847 215.25 9.35754 215.174 9.21932L215.144 9.17136C215.052 9.03913 214.913 8.97302 214.728 8.97302C214.598 8.97302 214.44 8.99506 214.256 9.03913C214.071 9.08321 213.843 9.16035 213.571 9.27054L208.942 10.6094C208.682 10.7086 208.497 10.827 208.388 10.9648C208.28 11.1025 208.225 11.2595 208.225 11.4358C208.225 11.5901 208.261 11.7168 208.331 11.816C208.402 11.9152 208.513 12.0088 208.665 12.097L209.089 12.1466C209.23 12.2127 209.331 12.3036 209.391 12.4193C209.45 12.535 209.48 12.7251 209.48 12.9895V21.3862C209.48 21.7168 209.453 21.9537 209.399 22.097C209.344 22.2402 209.247 22.3449 209.105 22.411L208.73 22.5598C208.589 22.659 208.478 22.7664 208.396 22.8821C208.315 22.9978 208.274 23.1438 208.274 23.3201C208.274 23.5515 208.342 23.7333 208.478 23.8656C208.614 23.9978 208.801 24.0639 209.04 24.0639H217.19ZM234.352 23.1052C233.32 23.9978 231.837 24.4441 229.902 24.4441C229.251 24.4441 228.71 24.3835 228.281 24.2623C227.852 24.1411 227.504 24.0198 227.238 23.8986C226.971 23.7774 226.757 23.7168 226.594 23.7168C226.431 23.7168 226.216 23.7774 225.95 23.8986L225.151 24.2623C224.885 24.3835 224.66 24.4441 224.475 24.4441C224.312 24.4441 224.16 24.389 224.019 24.2788C223.877 24.1686 223.769 23.9482 223.693 23.6176L223.187 20.3284C223.09 19.9097 223.073 19.557 223.139 19.2705C223.204 18.984 223.35 18.7967 223.579 18.7086C223.818 18.5984 224.054 18.5929 224.288 18.692C224.521 18.7912 224.73 18.9675 224.915 19.221C225.534 20.1796 226.094 20.9345 226.594 21.4854C227.094 22.0364 227.58 22.4248 228.053 22.6507C228.525 22.8766 229.022 22.9895 229.544 22.9895C230.098 22.9895 230.511 22.8573 230.783 22.5929C231.054 22.3284 231.19 21.9923 231.19 21.5846C231.19 21.276 231.111 20.9951 230.954 20.7416C230.796 20.4882 230.508 20.254 230.09 20.0391C229.672 19.8243 229.071 19.6121 228.289 19.4028C227.083 19.0942 226.083 18.692 225.29 18.1962C224.497 17.7003 223.907 17.1052 223.522 16.411C223.136 15.7168 222.943 14.9069 222.943 13.9813C222.943 12.9345 223.201 12.0336 223.717 11.2788C224.233 10.524 224.94 9.94271 225.836 9.535C226.732 9.12729 227.74 8.92343 228.859 8.92343C229.533 8.92343 230.082 8.98955 230.506 9.12178C230.929 9.25401 231.258 9.38624 231.492 9.51847C231.725 9.6507 231.902 9.71682 232.021 9.71682C232.152 9.71682 232.345 9.65346 232.6 9.52674C232.855 9.40001 233.113 9.27605 233.374 9.15484C233.635 9.03362 233.852 8.97302 234.026 8.97302C234.222 8.97302 234.379 9.03913 234.499 9.17136C234.618 9.3036 234.7 9.52949 234.743 9.84905L235.167 12.8904C235.243 13.3311 235.254 13.67 235.2 13.9069C235.145 14.1438 235.004 14.2953 234.776 14.3614C234.591 14.4055 234.395 14.3697 234.189 14.254C233.983 14.1383 233.776 13.9537 233.57 13.7003C232.776 12.4992 232.051 11.6507 231.394 11.1548C230.736 10.659 230.038 10.411 229.299 10.411C228.767 10.411 228.365 10.5267 228.093 10.7581C227.822 10.9895 227.686 11.2926 227.686 11.6672C227.686 11.9207 227.746 12.1576 227.865 12.378C227.985 12.5984 228.205 12.805 228.525 12.9978C228.846 13.1906 229.299 13.3807 229.886 13.5681C231.462 14.0529 232.684 14.5681 233.553 15.1135C234.423 15.659 235.031 16.2843 235.379 16.9895C235.727 17.6948 235.9 18.5157 235.9 19.4524C235.9 20.9951 235.384 22.2127 234.352 23.1052Z" fill="white"/>
<path fill-rule="evenodd" clip-rule="evenodd" d="M14.3897 4.44677C10.8753 0.935218 5.66594 0.429711 2.777 3.32175C-0.113435 6.2123 0.392054 11.4219 3.90048 14.9349C4.83645 15.8709 5.91493 16.5865 7.0534 17.0995C7.4269 14.9289 8.49787 12.8424 10.1238 11.1294C9.58535 10.9374 9.03336 10.7754 8.45737 10.6179C5.04645 9.68185 3.35149 6.83631 2.9555 3.50026C3.28302 3.89411 3.58121 4.30723 3.87853 4.71912C4.45539 5.51829 5.02894 6.31288 5.80693 6.95331C7.01718 7.94985 8.34561 8.33454 9.79894 8.75539C9.85505 8.77164 9.91135 8.78794 9.96784 8.80434C10.6563 9.00384 11.2548 9.29935 11.8038 9.64435C13.2468 8.58983 14.8742 7.88782 16.5542 7.59832C16.0427 6.4598 15.3257 5.38279 14.3897 4.44677ZM8.44687 17.9335C8.67037 15.7599 9.72335 13.6344 11.4108 11.9469C14.9252 8.43533 20.1346 7.92832 23.0235 10.8219C25.914 13.7124 25.41 18.922 21.8971 22.435C20.2096 24.1226 18.0842 25.1756 15.9107 25.4006C15.6212 25.4291 15.3347 25.4441 15.0542 25.4441C13.1853 25.4441 11.5158 24.7886 10.2858 23.5586C8.86986 22.144 8.21588 20.146 8.44687 17.9335ZM13.5873 19.717C14.7392 18.838 15.9857 18.49 17.3417 18.1195C20.7526 17.1835 22.4461 14.3379 22.8436 11.0019C22.5188 11.3935 22.2228 11.8038 21.9276 12.2129C21.349 13.0149 20.7739 13.8122 19.9921 14.4549C18.7781 15.4531 17.4467 15.8384 15.9868 16.2609L15.8312 16.306C12.4938 17.275 10.8438 20.0965 10.4628 23.3801C10.7916 22.985 11.0928 22.575 11.3924 22.167C12.0427 21.2815 12.6856 20.4061 13.5873 19.717Z" fill="#0E8784"/>
</svg>
